<svg width="36" height="36" viewBox="0 0 36 36" fill="none" xmlns="http://www.w3.org/2000/svg">
<rect width="36" height="36" rx="18" fill="#FFAA5A"/>
<path d="M27.28 19.1111H7.28C6.65777 19.1111 6.16888 18.6222 6.16888 18C6.16888 17.3778 6.65777 16.8889 7.28 16.8889H27.28C27.9022 16.8889 28.3911 17.3778 28.3911 18C28.3911 18.6222 27.9022 19.1111 27.28 19.1111Z" fill="#312E32"/>
<path d="M21.5022 26.8889C21.3565 26.8907 21.212 26.8619 21.0781 26.8045C20.9441 26.7471 20.8237 26.6623 20.7244 26.5555C20.28 26.1111 20.28 25.4222 20.7244 24.9778L27.7244 17.9778L20.7244 10.9778C20.28 10.5333 20.28 9.84443 20.7244 9.39998C21.1689 8.95554 21.8578 8.95554 22.3022 9.39998L30.08 17.1778C30.5244 17.6222 30.5244 18.3111 30.08 18.7555L22.3022 26.5333C22.08 26.7555 21.7911 26.8667 21.5244 26.8667L21.5022 26.8889Z" fill="#312E32"/>
</svg>
