<svg width="43" height="24" viewBox="0 0 43 24" fill="none" xmlns="http://www.w3.org/2000/svg">
<path d="M33.335 13.3334H9.335C8.58833 13.3334 8.00167 12.7467 8.00167 12C8.00167 11.2534 8.58833 10.6667 9.335 10.6667H33.335C34.0817 10.6667 34.6683 11.2534 34.6683 12C34.6683 12.7467 34.0817 13.3334 33.335 13.3334Z" fill="#3F3B40"/>
<path d="M16.0017 22.6666C15.8268 22.6688 15.6534 22.6343 15.4927 22.5654C15.3319 22.4965 15.1874 22.3947 15.0683 22.2666L5.735 12.9333C5.20167 12.4 5.20167 11.5733 5.735 11.04L15.0683 1.73331C15.6017 1.19998 16.4283 1.19998 16.9617 1.73331C17.495 2.26665 17.495 3.09331 16.9617 3.62665L8.56167 12.0266L16.9617 20.4266C17.495 20.96 17.495 21.7866 16.9617 22.32C16.695 22.5866 16.3483 22.72 16.0283 22.72L16.0017 22.6666Z" fill="#3F3B40"/>
</svg>
