<svg width="21" height="20" viewBox="0 0 21 20" fill="none" xmlns="http://www.w3.org/2000/svg">
<path d="M17.0943 6.65751L10.8468 12.7475L4.59934 6.65751C4.48772 6.54847 4.33787 6.48743 4.18184 6.48743C4.0258 6.48743 3.87595 6.54847 3.76434 6.65751C3.71029 6.71046 3.66735 6.77367 3.63804 6.84343C3.60873 6.91319 3.59363 6.98809 3.59363 7.06376C3.59363 7.13942 3.60873 7.21433 3.63804 7.28409C3.66735 7.35384 3.71029 7.41705 3.76434 7.47001L10.4106 13.95C10.5273 14.0638 10.6838 14.1274 10.8468 14.1274C11.0098 14.1274 11.1664 14.0638 11.2831 13.95L17.9293 7.47126C17.9838 7.41826 18.027 7.3549 18.0566 7.28491C18.0861 7.21492 18.1013 7.13972 18.1013 7.06376C18.1013 6.98779 18.0861 6.91259 18.0566 6.8426C18.027 6.77261 17.9838 6.70925 17.9293 6.65626C17.8177 6.54722 17.6679 6.48618 17.5118 6.48618C17.3558 6.48618 17.206 6.54722 17.0943 6.65626V6.65751Z" fill="#585159"/>
</svg>
