<svg width="21" height="20" viewBox="0 0 21 20" fill="none" xmlns="http://www.w3.org/2000/svg">
<path d="M6.47186 0C6.63762 0 6.79659 0.065848 6.9138 0.183058C7.03101 0.300269 7.09686 0.45924 7.09686 0.625V2.5H14.5969V0.625C14.5969 0.45924 14.6627 0.300269 14.7799 0.183058C14.8971 0.065848 15.0561 0 15.2219 0C15.3876 0 15.5466 0.065848 15.6638 0.183058C15.781 0.300269 15.8469 0.45924 15.8469 0.625V2.5H18.1385C18.9435 2.5 19.5969 3.15333 19.5969 3.95833V17.2917C19.5969 17.6784 19.4432 18.0494 19.1697 18.3229C18.8962 18.5964 18.5253 18.75 18.1385 18.75H3.5552C3.16842 18.75 2.79749 18.5964 2.524 18.3229C2.25051 18.0494 2.09686 17.6784 2.09686 17.2917V3.95833C2.09686 3.15333 2.7502 2.5 3.5552 2.5H5.84686V0.625C5.84686 0.45924 5.91271 0.300269 6.02992 0.183058C6.14713 0.065848 6.3061 0 6.47186 0ZM18.3469 7.91667H3.34686V17.2917C3.34686 17.4067 3.4402 17.5 3.5552 17.5H18.1385C18.1938 17.5 18.2468 17.4781 18.2858 17.439C18.3249 17.3999 18.3469 17.3469 18.3469 17.2917V7.91667ZM3.5552 3.75C3.49994 3.75 3.44695 3.77195 3.40788 3.81102C3.36881 3.85009 3.34686 3.90308 3.34686 3.95833V6.66667H18.3469V3.95833C18.3469 3.90308 18.3249 3.85009 18.2858 3.81102C18.2468 3.77195 18.1938 3.75 18.1385 3.75H3.5552Z" fill="#312E32"/>
</svg>
