<svg width="50" height="51" viewBox="0 0 50 51" fill="none" xmlns="http://www.w3.org/2000/svg">
<path fill-rule="evenodd" clip-rule="evenodd" d="M25 44.25V31.75H28.125V44.25H43.75V16.125H46.875V44.25C46.875 45.0788 46.5458 45.8737 45.9597 46.4597C45.3737 47.0458 44.5788 47.375 43.75 47.375H6.25C5.4212 47.375 4.62634 47.0458 4.04029 46.4597C3.45424 45.8737 3.125 45.0788 3.125 44.25V38H6.25V44.25H25ZM40.1656 12.5438L30.7938 21.9188C31.2951 22.9623 31.3925 24.1544 31.0672 25.2654C30.742 26.3765 30.0171 27.3279 29.0322 27.9364C28.0473 28.5448 26.8721 28.7673 25.733 28.561C24.5939 28.3546 23.5714 27.734 22.8625 26.8188L14.3813 29.6438L12.5 30.2719C12.4803 31.3776 12.0703 32.4407 11.3425 33.2733C10.6147 34.1059 9.61594 34.6544 8.52282 34.8218C7.4297 34.9892 6.31259 34.7647 5.36897 34.1881C4.42536 33.6114 3.716 32.7197 3.36629 31.6706C3.01659 30.6215 3.04906 29.4825 3.45796 28.455C3.86687 27.4276 4.62588 26.5777 5.60081 26.0558C6.57575 25.5338 7.70383 25.3734 8.78564 25.6028C9.86744 25.8322 10.8333 26.4367 11.5125 27.3094L21.875 23.8531C21.8889 23.0685 22.0996 22.3 22.4878 21.618C22.8759 20.936 23.429 20.3623 24.0965 19.9496C24.7639 19.5369 25.5242 19.2983 26.3078 19.2558C27.0914 19.2133 27.8731 19.3682 28.5812 19.7063L37.9562 10.3313C37.4796 9.33345 37.3711 8.19929 37.6499 7.12922C37.9286 6.05915 38.5767 5.12207 39.4796 4.48363C40.3824 3.84518 41.4819 3.54647 42.5837 3.64028C43.6855 3.7341 44.7187 4.21441 45.5006 4.99632C46.2825 5.77823 46.7628 6.81138 46.8566 7.91318C46.9504 9.01497 46.6517 10.1145 46.0133 11.0173C45.3748 11.9202 44.4377 12.5682 43.3677 12.847C42.2976 13.1257 41.1634 13.0172 40.1656 12.5406" fill="#FFAA5A"/>
</svg>
