<svg width="25" height="24" viewBox="0 0 25 24" fill="none" xmlns="http://www.w3.org/2000/svg">
<path d="M2.26001 1.5H23.26V22.5H2.26001V1.5Z" fill="#F5DE19"/>
<path d="M16.3668 17.9063C16.546 18.2695 16.824 18.5748 17.169 18.787C17.5139 18.9993 17.9118 19.11 18.3168 19.1063C19.1343 19.1063 19.657 18.6975 19.657 18.1313C19.657 17.4563 19.12 17.2148 18.22 16.821L17.7265 16.6095C16.3015 16.0028 15.3565 15.243 15.3565 13.6365C15.3565 12.1567 16.4815 11.0295 18.2463 11.0295C18.8175 10.9883 19.3883 11.1162 19.8873 11.3973C20.3864 11.6783 20.7917 12.1 21.0528 12.6098L19.51 13.596C19.4094 13.3433 19.2345 13.127 19.0082 12.9759C18.782 12.8249 18.5153 12.7461 18.2433 12.75C18.1246 12.7381 18.0047 12.7511 17.8913 12.7881C17.778 12.8251 17.6735 12.8853 17.5847 12.9649C17.4959 13.0445 17.4246 13.1417 17.3754 13.2504C17.3262 13.359 17.3002 13.4767 17.299 13.596C17.299 14.1878 17.6658 14.4278 18.5125 14.796L19.006 15.0075C20.683 15.7268 21.631 16.4595 21.631 18.1073C21.631 19.884 20.2353 20.8575 18.361 20.8575C17.6308 20.9036 16.9029 20.7376 16.2648 20.3795C15.6268 20.0214 15.1059 19.4865 14.7648 18.8393L16.3668 17.9063ZM9.39552 18.0773C9.70527 18.627 9.98727 19.092 10.6653 19.092C11.3133 19.092 11.7228 18.8385 11.7228 17.8523V11.142H13.696V17.8785C13.696 19.9215 12.496 20.8515 10.7493 20.8515C10.1318 20.8853 9.51863 20.7314 8.99028 20.4101C8.46193 20.0888 8.04316 19.6152 7.78902 19.0515L9.39552 18.0773Z" fill="black"/>
</svg>
