<svg width="20" height="20" viewBox="0 0 20 20" fill="none" xmlns="http://www.w3.org/2000/svg">
<path d="M6.66667 2.5C7.32971 2.5 7.96559 2.76339 8.43443 3.23223C8.90327 3.70107 9.16667 4.33696 9.16667 5V5.83333C9.16667 6.49637 8.90327 7.13226 8.43443 7.6011C7.96559 8.06994 7.32971 8.33333 6.66667 8.33333H5C4.33696 8.33333 3.70107 8.06994 3.23223 7.6011C2.76339 7.13226 2.5 6.49637 2.5 5.83333V5C2.5 4.33696 2.76339 3.70107 3.23223 3.23223C3.70107 2.76339 4.33696 2.5 5 2.5H6.66667ZM6.66667 10C7.32971 10 7.96559 10.2634 8.43443 10.7322C8.90327 11.2011 9.16667 11.837 9.16667 12.5V15C9.16667 15.663 8.90327 16.2989 8.43443 16.7678C7.96559 17.2366 7.32971 17.5 6.66667 17.5H5C4.33696 17.5 3.70107 17.2366 3.23223 16.7678C2.76339 16.2989 2.5 15.663 2.5 15V12.5C2.5 11.837 2.76339 11.2011 3.23223 10.7322C3.70107 10.2634 4.33696 10 5 10H6.66667ZM15 2.5C15.663 2.5 16.2989 2.76339 16.7678 3.23223C17.2366 3.70107 17.5 4.33696 17.5 5V15C17.5 15.663 17.2366 16.2989 16.7678 16.7678C16.2989 17.2366 15.663 17.5 15 17.5H13.3333C12.6703 17.5 12.0344 17.2366 11.5656 16.7678C11.0967 16.2989 10.8333 15.663 10.8333 15V5C10.8333 4.33696 11.0967 3.70107 11.5656 3.23223C12.0344 2.76339 12.6703 2.5 13.3333 2.5H15Z" fill="#312E32"/>
</svg>
