<svg width="27" height="24" viewBox="0 0 27 24" fill="none" xmlns="http://www.w3.org/2000/svg">
<g clip-path="url(#clip0_212_2)">
<path d="M22.1574 7.77093C21.8706 7.67256 21.5814 7.58141 21.29 7.49756C21.339 7.29756 21.384 7.09998 21.424 6.90588C22.0807 3.7184 21.6514 1.15051 20.1852 0.305034C18.7794 -0.505492 16.4804 0.339666 14.1585 2.3604C13.9296 2.5599 13.7059 2.76516 13.4874 2.97598C13.3412 2.8358 13.1923 2.69834 13.041 2.56367C10.6075 0.403034 8.16836 -0.507597 6.70373 0.340297C5.29921 1.15335 4.88331 3.56735 5.47447 6.58819C5.53329 6.88737 5.59969 7.18501 5.67363 7.48082C5.32837 7.57893 4.99521 7.68335 4.67636 7.79451C1.82331 8.78924 0.00131226 10.3481 0.00131226 11.965C0.00131226 13.635 1.95731 15.3101 4.92889 16.3258C5.16981 16.4078 5.41273 16.4837 5.65742 16.5537C5.57797 16.8723 5.50742 17.193 5.44584 17.5156C4.88226 20.484 5.32236 22.8409 6.7231 23.6488C8.16984 24.4831 10.598 23.6257 12.9624 21.5588C13.1541 21.3908 13.3416 21.218 13.5247 21.0406C13.7613 21.2689 14.0042 21.4905 14.2531 21.7052C16.5434 23.676 18.8053 24.4718 20.2047 23.6617C21.65 22.8249 22.1198 20.2929 21.5099 17.2124C21.4619 16.9711 21.408 16.7309 21.3484 16.4922C21.5189 16.4417 21.6863 16.3897 21.8494 16.3356C24.9387 15.3121 26.9487 13.6573 26.9487 11.965C26.9487 10.3422 25.0678 8.77282 22.1574 7.77093ZM21.4874 15.2429C21.3399 15.2916 21.189 15.3388 21.0348 15.3845C20.6937 14.3048 20.2335 13.1568 19.6703 11.9706C20.2077 10.8127 20.6503 9.67935 20.9817 8.60672C21.2574 8.68651 21.5249 8.77061 21.7828 8.85935C24.2765 9.71788 25.7975 10.987 25.7975 11.965C25.7975 13.0067 24.1548 14.359 21.4874 15.2429ZM20.3807 17.436C20.6504 18.7981 20.6888 20.0297 20.5102 20.9925C20.3497 21.8577 20.027 22.4344 19.6278 22.6655C18.7787 23.157 16.9626 22.5181 15.0039 20.8326C14.7724 20.633 14.5465 20.4269 14.3264 20.2147C15.0857 19.3843 15.8446 18.4189 16.5852 17.3467C17.8879 17.2311 19.1187 17.0421 20.2348 16.7841C20.2899 17.006 20.3385 17.2233 20.3807 17.436ZM9.18826 22.5805C8.35858 22.8735 7.69773 22.8819 7.29826 22.6516C6.44826 22.1614 6.09489 20.2688 6.57689 17.7303C6.63419 17.4303 6.6998 17.132 6.77363 16.8357C7.87742 17.0799 9.09921 17.2555 10.405 17.3614C11.1507 18.4105 11.9314 19.3748 12.7183 20.2192C12.551 20.381 12.3799 20.5387 12.2049 20.6921C11.1593 21.606 10.1116 22.2544 9.18826 22.5805ZM5.30131 15.2365C3.98731 14.7874 2.90215 14.2037 2.15836 13.5667C1.48994 12.9944 1.15258 12.4261 1.15258 11.965C1.15258 10.9838 2.61542 9.73219 5.05531 8.88156C5.35142 8.7784 5.66131 8.68103 5.98289 8.58967C6.32015 9.68651 6.76247 10.8333 7.29626 11.993C6.75552 13.1699 6.30689 14.335 5.96636 15.4448C5.74301 15.3808 5.52126 15.3114 5.30131 15.2365ZM6.60426 6.36703C6.09784 3.77893 6.43415 1.82661 7.28058 1.33661C8.18205 0.814718 10.1755 1.55882 12.2767 3.42451C12.4137 3.54644 12.5485 3.67084 12.681 3.79767C11.898 4.6384 11.1245 5.59556 10.3854 6.63851C9.11805 6.75598 7.90489 6.94461 6.78952 7.19735C6.72079 6.92222 6.65901 6.64529 6.60426 6.36703ZM18.2282 9.23745C17.9647 8.7824 17.6915 8.33307 17.4087 7.88977C18.2685 7.99851 19.0923 8.14282 19.8658 8.31924C19.6336 9.06367 19.3442 9.84188 19.0034 10.6398C18.7544 10.1672 18.4959 9.69968 18.2282 9.23745ZM13.4879 4.62051C14.0189 5.19577 14.5507 5.83798 15.0737 6.53482C14.0127 6.48471 12.9499 6.4845 11.8888 6.53419C12.4124 5.84377 12.9487 5.2024 13.4879 4.62051ZM8.71731 9.24524C8.45292 9.70375 8.19927 10.1684 7.95658 10.6387C7.62142 9.84367 7.33458 9.06188 7.10037 8.30693C7.86921 8.13493 8.6891 7.9943 9.54342 7.88756C9.25748 8.33357 8.98203 8.78632 8.71731 9.24524ZM9.56794 16.1243C8.68531 16.0258 7.8531 15.8924 7.08447 15.725C7.32237 14.9566 7.61552 14.1582 7.95794 13.3461C8.2016 13.8168 8.45631 14.2817 8.72184 14.7404C8.99489 15.212 9.27763 15.6739 9.56794 16.1243ZM13.5197 19.3906C12.974 18.802 12.4298 18.1507 11.8984 17.4503C12.4144 17.4705 12.9404 17.4808 13.475 17.4808C14.0243 17.4808 14.5672 17.4685 15.1016 17.4447C14.5769 18.1578 14.0471 18.81 13.5197 19.3906ZM19.0143 13.3046C19.3745 14.1257 19.678 14.9199 19.9191 15.6751C19.1378 15.8535 18.2943 15.997 17.4054 16.1037C17.6902 15.6522 17.9661 15.195 18.2327 14.7325C18.5038 14.2624 18.7644 13.7863 19.0143 13.3046ZM17.2355 14.1574C16.8273 14.8664 16.3962 15.5621 15.9428 16.2431C15.1215 16.3013 14.2984 16.3302 13.475 16.3298C12.6364 16.3298 11.8207 16.3037 11.0352 16.2527C10.57 15.5732 10.1306 14.8764 9.71805 14.1637C9.3074 13.4547 8.92397 12.7305 8.56837 11.9924C8.92307 11.2542 9.30545 10.5295 9.71468 9.82009L9.71458 9.82019C10.1236 9.11051 10.5595 8.41664 11.0212 7.74009C11.8226 7.67945 12.6444 7.64788 13.4749 7.64788C14.3092 7.64788 15.1322 7.67977 15.9333 7.74082C16.3904 8.41637 16.8235 9.10785 17.2317 9.81398C17.6423 10.5219 18.0297 11.243 18.3934 11.9761C18.0334 12.7167 17.6472 13.4442 17.2355 14.1574ZM19.6103 1.30219C20.5126 1.82261 20.8635 3.92124 20.2966 6.67335C20.2602 6.84907 20.2199 7.02767 20.1755 7.20914C19.0574 6.95103 17.8434 6.75914 16.5724 6.63988C15.8319 5.58545 15.0647 4.62682 14.2945 3.79693C14.4963 3.60236 14.703 3.41283 14.9143 3.22851C16.9037 1.49724 18.7631 0.813666 19.6103 1.30219ZM13.475 9.55872C14.8039 9.55872 15.8813 10.6361 15.8813 11.965C15.8813 13.294 14.8039 14.3714 13.475 14.3714C12.146 14.3714 11.0687 13.294 11.0687 11.965C11.0687 10.6361 12.146 9.55872 13.475 9.55872Z" fill="#00D8FF"/>
</g>
<defs>
<clipPath id="clip0_212_2">
<rect width="26.95" height="24" fill="white"/>
</clipPath>
</defs>
</svg>
