<svg width="550" height="55" viewBox="0 0 550 55" fill="none" xmlns="http://www.w3.org/2000/svg">
<path d="M26.4769 0L59.1433 32.5342V50H43.899V38.8128L20.173 15.1826H15.2443V50H0V0H26.4769ZM43.899 17.3516V0H59.1433V17.3516H43.899Z" fill="#726B73"/>
<g clip-path="url(#clip0_46_541)">
<path d="M118.518 0L152.893 20.6385V34.3562L118.518 55L84.1433 34.3562V20.6386L118.518 0Z" fill="#C1BFC1"/>
<path fill-rule="evenodd" clip-rule="evenodd" d="M84.1433 20.6385L118.518 0L152.893 20.6385V34.3562L118.518 55L84.1433 34.3562V20.6385ZM118.518 46.2426L145.601 29.978V25.0183L145.6 25.0174L118.518 41.2771L91.4367 25.0174L91.4353 25.0183V29.978L118.518 46.2426ZM118.518 33.6938L139.283 21.2267L134.225 18.191L118.518 27.6211L102.812 18.191L97.7534 21.2267L118.518 33.6938ZM118.518 20.0379L127.908 14.4002L118.518 8.76517L109.128 14.4002L118.518 20.0379Z" fill="#726B73"/>
<path d="M118.518 0L84.1433 20.6386V34.3562L118.518 55L118.518 0Z" fill="white" fill-opacity="0.25"/>
</g>
<path d="M253.395 13.2888C250.205 10.0991 246.418 7.56871 242.251 5.84243C238.083 4.11615 233.616 3.22766 229.105 3.22766C224.594 3.22766 220.128 4.11615 215.96 5.84243C211.792 7.56871 208.006 10.0991 204.816 13.2888L229.105 37.5784L253.395 13.2888Z" fill="#726B73"/>
<path d="M229.136 37.6134C232.326 40.8031 236.112 43.3334 240.28 45.0597C244.448 46.7859 248.914 47.6744 253.426 47.6744C257.936 47.6744 262.404 46.7859 266.571 45.0597C270.739 43.3334 274.526 40.8031 277.715 37.6134L253.426 13.3237L229.136 37.6134Z" fill="#C1BFC1"/>
<path d="M229.076 37.608C225.886 40.7978 222.099 43.328 217.932 45.0543C213.764 46.7806 209.297 47.6691 204.786 47.6691C200.275 47.6691 195.808 46.7806 191.641 45.0543C187.473 43.328 183.686 40.7978 180.497 37.608L204.786 13.3184L229.076 37.608Z" fill="#C1BFC1"/>
<path d="M253.455 13.2942C256.644 10.1044 260.432 7.5742 264.599 5.84792C268.767 4.12164 273.234 3.23315 277.744 3.23315C282.256 3.23315 286.722 4.12164 290.89 5.84792C295.057 7.5742 298.844 10.1044 302.034 13.2942L277.744 37.5839L253.455 13.2942Z" fill="#726B73"/>
<g clip-path="url(#clip1_46_541)">
<path fill-rule="evenodd" clip-rule="evenodd" d="M348.387 35C346.73 35 345.14 34.3415 343.968 33.1694C342.796 31.9973 342.137 30.4076 342.137 28.75V0H329.637V28.75C329.637 39.105 338.032 47.5 348.387 47.5H362.137V35H348.387ZM385.887 12.5C384.41 12.5 382.947 12.791 381.582 13.3564C380.217 13.9217 378.977 14.7504 377.933 15.795C376.888 16.8397 376.059 18.0799 375.494 19.4448C374.928 20.8097 374.637 22.2726 374.637 23.75C374.637 25.2274 374.928 26.6903 375.494 28.0552C376.059 29.4201 376.888 30.6603 377.933 31.705C378.977 32.7496 380.217 33.5783 381.582 34.1436C382.947 34.709 384.41 35 385.887 35C388.871 35 391.733 33.8147 393.842 31.705C395.952 29.5952 397.137 26.7337 397.137 23.75C397.137 20.7663 395.952 17.9048 393.842 15.795C391.733 13.6853 388.871 12.5 385.887 12.5ZM362.137 23.75C362.137 10.6337 372.771 0 385.887 0C399.004 0 409.637 10.6337 409.637 23.75C409.637 36.8662 399.004 47.5 385.887 47.5C372.771 47.5 362.137 36.8662 362.137 23.75ZM520.887 12.5C517.904 12.5 515.042 13.6853 512.933 15.795C510.823 17.9048 509.637 20.7663 509.637 23.75C509.637 26.7337 510.823 29.5952 512.933 31.705C515.042 33.8147 517.904 35 520.887 35C523.871 35 526.733 33.8147 528.842 31.705C530.952 29.5952 532.137 26.7337 532.137 23.75C532.137 20.7663 530.952 17.9048 528.842 15.795C526.733 13.6853 523.871 12.5 520.887 12.5ZM497.137 23.75C497.137 10.6337 507.771 0 520.887 0C534.004 0 544.637 10.6337 544.637 23.75C544.637 36.8662 534.004 47.5 520.887 47.5C507.771 47.5 497.137 36.8662 497.137 23.75ZM435.887 0C422.771 0 412.137 10.6337 412.137 23.75C412.137 36.8662 422.771 47.5 435.887 47.5H470.887C473.349 47.5 475.722 47.125 477.955 46.43L484.637 50L491.847 36.495C493.679 33.0571 494.637 29.2216 494.637 25.3263V23.75C494.637 10.6337 484.004 0 470.887 0H435.887ZM482.137 23.75C482.137 20.7663 480.952 17.9048 478.842 15.795C476.733 13.6853 473.871 12.5 470.887 12.5H435.887C434.41 12.5 432.947 12.791 431.582 13.3564C430.217 13.9217 428.977 14.7504 427.933 15.795C426.888 16.8397 426.059 18.0799 425.494 19.4448C424.928 20.8097 424.637 22.2726 424.637 23.75C424.637 25.2274 424.928 26.6903 425.494 28.0552C426.059 29.4201 426.888 30.6603 427.933 31.705C428.977 32.7496 430.217 33.5783 431.582 34.1436C432.947 34.709 434.41 35 435.887 35H470.887C473.856 35.0001 476.704 33.8268 478.812 31.7359C480.919 29.6451 482.114 26.806 482.137 23.8375V23.75Z" fill="#726B73"/>
<path d="M549.637 3.125C549.637 3.9538 549.308 4.74866 548.722 5.33471C548.136 5.92076 547.341 6.25 546.512 6.25C545.684 6.25 544.889 5.92076 544.303 5.33471C543.717 4.74866 543.387 3.9538 543.387 3.125C543.387 2.2962 543.717 1.50134 544.303 0.915291C544.889 0.32924 545.684 0 546.512 0C547.341 0 548.136 0.32924 548.722 0.915291C549.308 1.50134 549.637 2.2962 549.637 3.125Z" fill="#726B73"/>
</g>
<defs>
<clipPath id="clip0_46_541">
<rect width="68.75" height="55" fill="white" transform="translate(84.1433)"/>
</clipPath>
<clipPath id="clip1_46_541">
<rect width="220" height="50" fill="white" transform="translate(329.637)"/>
</clipPath>
</defs>
</svg>
