<svg width="24" height="24" viewBox="0 0 24 24" fill="none" xmlns="http://www.w3.org/2000/svg">
<path d="M17.296 15.7041C17.4008 15.8086 17.4841 15.9328 17.5408 16.0695C17.5976 16.2063 17.6268 16.3529 17.6268 16.5009C17.6268 16.649 17.5976 16.7956 17.5408 16.9324C17.4841 17.0691 17.4008 17.1933 17.296 17.2978L12.796 21.7978C12.6914 21.9027 12.5672 21.9859 12.4305 22.0427C12.2938 22.0995 12.1471 22.1287 11.9991 22.1287C11.851 22.1287 11.7044 22.0995 11.5677 22.0427C11.4309 21.9859 11.3067 21.9027 11.2022 21.7978L6.70221 17.2978C6.49086 17.0865 6.37213 16.7998 6.37213 16.5009C6.37213 16.2021 6.49086 15.9154 6.70221 15.7041C6.91355 15.4927 7.2002 15.374 7.49908 15.374C7.79797 15.374 8.08461 15.4927 8.29596 15.7041L12 19.4063L15.7041 15.7013C15.8087 15.5968 15.933 15.5141 16.0696 15.4577C16.2063 15.4013 16.3528 15.3724 16.5006 15.3727C16.6484 15.373 16.7948 15.4024 16.9313 15.4592C17.0677 15.5161 17.1917 15.5993 17.296 15.7041ZM8.29596 8.29781L12 4.59375L15.7041 8.29875C15.9154 8.5101 16.2021 8.62883 16.501 8.62883C16.7998 8.62883 17.0865 8.5101 17.2978 8.29875C17.5092 8.08741 17.6279 7.80076 17.6279 7.50188C17.6279 7.20299 17.5092 6.91635 17.2978 6.705L12.7978 2.205C12.6933 2.10012 12.5691 2.01691 12.4324 1.96012C12.2956 1.90334 12.149 1.87411 12.001 1.87411C11.8529 1.87411 11.7063 1.90334 11.5695 1.96012C11.4328 2.01691 11.3086 2.10012 11.2041 2.205L6.70408 6.705C6.49274 6.91635 6.37401 7.20299 6.37401 7.50188C6.37401 7.80076 6.49274 8.08741 6.70408 8.29875C6.91543 8.5101 7.20207 8.62883 7.50096 8.62883C7.79984 8.62883 8.08649 8.5101 8.29783 8.29875L8.29596 8.29781Z" fill="#F6F1F6"/>
</svg>
